<svg width="28" height="28" viewBox="0 0 28 28" fill="none" xmlns="http://www.w3.org/2000/svg">
<g>
<path d="M14 23.9167C19.4768 23.9167 23.9167 19.4768 23.9167 14C23.9167 8.52318 19.4768 4.08333 14 4.08333C8.52318 4.08333 4.08333 8.52318 4.08333 14C4.08333 19.4768 8.52318 23.9167 14 23.9167Z" stroke="#8FB0FF" stroke-width="1.98333" stroke-linecap="round" stroke-linejoin="round"/>
<path d="M14 9.33333C14 9.33333 10.7333 12.8333 10.7333 15.1667C10.7333 16.033 11.0775 16.8639 11.6901 17.4766C12.3027 18.0892 13.1336 18.4333 14 18.4333C14.8664 18.4333 15.6973 18.0892 16.3099 17.4766C16.9225 16.8639 17.2667 16.033 17.2667 15.1667C17.2667 12.8333 14 9.33333 14 9.33333Z" stroke="#8FB0FF" stroke-width="1.98333" stroke-linecap="round" stroke-linejoin="round"/>
</g>
</svg>
